<svg version="1.2" xmlns="http://www.w3.org/2000/svg" viewBox="0 0 800 400" width="800" height="400">
	<title>1482874_3589</title>
	<defs>
		<clipPath clipPathUnits="userSpaceOnUse" id="cp1">
			<path d="m-8.17-1.9h817.93v408.97h-817.93z"/>
		</clipPath>
		<clipPath clipPathUnits="userSpaceOnUse" id="cp2">
			<path d="m-8.17-1.9h817.93v408.97h-817.93z"/>
		</clipPath>
		<clipPath clipPathUnits="userSpaceOnUse" id="cp3">
			<path d="m-8.17-1.9h817.93v408.97h-817.93z"/>
		</clipPath>
		<clipPath clipPathUnits="userSpaceOnUse" id="cp4">
			<path d="m-8.17-1.9h817.93v408.97h-817.93z"/>
		</clipPath>
		<clipPath clipPathUnits="userSpaceOnUse" id="cp5">
			<path d="m-8.17-1.9h817.93v408.97h-817.93z"/>
		</clipPath>
		<clipPath clipPathUnits="userSpaceOnUse" id="cp6">
			<path d="m-8.17-1.9h817.93v408.97h-817.93z"/>
		</clipPath>
		<clipPath clipPathUnits="userSpaceOnUse" id="cp7">
			<path d="m-8.17-1.9h817.93v408.97h-817.93z"/>
		</clipPath>
		<clipPath clipPathUnits="userSpaceOnUse" id="cp8">
			<path d="m-8.17-1.9h817.93v408.97h-817.93z"/>
		</clipPath>
		<clipPath clipPathUnits="userSpaceOnUse" id="cp9">
			<path d="m-8.17-1.9h817.93v408.97h-817.93z"/>
		</clipPath>
		<clipPath clipPathUnits="userSpaceOnUse" id="cp10">
			<path d="m-8.17-1.9h817.93v408.97h-817.93z"/>
		</clipPath>
		<clipPath clipPathUnits="userSpaceOnUse" id="cp11">
			<path d="m-8.17-1.9h817.93v408.97h-817.93z"/>
		</clipPath>
		<clipPath clipPathUnits="userSpaceOnUse" id="cp12">
			<path d="m-8.17-1.9h817.93v408.97h-817.93z"/>
		</clipPath>
		<clipPath clipPathUnits="userSpaceOnUse" id="cp13">
			<path d="m-8.17-1.9h817.93v408.97h-817.93z"/>
		</clipPath>
		<clipPath clipPathUnits="userSpaceOnUse" id="cp14">
			<path d="m-8.17-1.9h817.93v408.97h-817.93z"/>
		</clipPath>
		<clipPath clipPathUnits="userSpaceOnUse" id="cp15">
			<path d="m-8.17-1.9h817.93v408.97h-817.93z"/>
		</clipPath>
		<clipPath clipPathUnits="userSpaceOnUse" id="cp16">
			<path d="m-8.17-1.9h817.93v408.97h-817.93z"/>
		</clipPath>
		<clipPath clipPathUnits="userSpaceOnUse" id="cp17">
			<path d="m-8.17-1.9h817.93v408.97h-817.93z"/>
		</clipPath>
		<clipPath clipPathUnits="userSpaceOnUse" id="cp18">
			<path d="m-8.17-1.9h817.93v408.97h-817.93z"/>
		</clipPath>
		<clipPath clipPathUnits="userSpaceOnUse" id="cp19">
			<path d="m-8.17-1.9h817.93v408.97h-817.93z"/>
		</clipPath>
		<clipPath clipPathUnits="userSpaceOnUse" id="cp20">
			<path d="m-8.17-1.9h817.93v408.97h-817.93z"/>
		</clipPath>
		<clipPath clipPathUnits="userSpaceOnUse" id="cp21">
			<path d="m-8.17-1.9h817.93v408.97h-817.93z"/>
		</clipPath>
		<clipPath clipPathUnits="userSpaceOnUse" id="cp22">
			<path d="m-8.17-1.9h817.93v408.97h-817.93z"/>
		</clipPath>
		<clipPath clipPathUnits="userSpaceOnUse" id="cp23">
			<path d="m-8.17-1.9h817.93v408.97h-817.93z"/>
		</clipPath>
		<clipPath clipPathUnits="userSpaceOnUse" id="cp24">
			<path d="m-8.17-1.9h817.93v408.97h-817.93z"/>
		</clipPath>
		<clipPath clipPathUnits="userSpaceOnUse" id="cp25">
			<path d="m-8.17-1.9h817.93v408.97h-817.93z"/>
		</clipPath>
		<clipPath clipPathUnits="userSpaceOnUse" id="cp26">
			<path d="m-8.17-1.9h817.93v408.97h-817.93z"/>
		</clipPath>
		<clipPath clipPathUnits="userSpaceOnUse" id="cp27">
			<path d="m-8.17-1.9h817.93v408.97h-817.93z"/>
		</clipPath>
		<clipPath clipPathUnits="userSpaceOnUse" id="cp28">
			<path d="m-8.17-1.9h817.93v408.97h-817.93z"/>
		</clipPath>
		<clipPath clipPathUnits="userSpaceOnUse" id="cp29">
			<path d="m-8.17-1.9h817.93v408.97h-817.93z"/>
		</clipPath>
		<clipPath clipPathUnits="userSpaceOnUse" id="cp30">
			<path d="m-8.17-1.9h817.93v408.97h-817.93z"/>
		</clipPath>
		<clipPath clipPathUnits="userSpaceOnUse" id="cp31">
			<path d="m-8.17-1.9h817.93v408.97h-817.93z"/>
		</clipPath>
		<clipPath clipPathUnits="userSpaceOnUse" id="cp32">
			<path d="m-8.17-1.9h817.93v408.97h-817.93z"/>
		</clipPath>
		<clipPath clipPathUnits="userSpaceOnUse" id="cp33">
			<path d="m-8.17-1.9h817.93v408.97h-817.93z"/>
		</clipPath>
		<clipPath clipPathUnits="userSpaceOnUse" id="cp34">
			<path d="m-8.17-1.9h817.93v408.97h-817.93z"/>
		</clipPath>
		<clipPath clipPathUnits="userSpaceOnUse" id="cp35">
			<path d="m-8.17-1.9h817.93v408.97h-817.93z"/>
		</clipPath>
		<clipPath clipPathUnits="userSpaceOnUse" id="cp36">
			<path d="m-8.17-1.9h817.93v408.97h-817.93z"/>
		</clipPath>
		<clipPath clipPathUnits="userSpaceOnUse" id="cp37">
			<path d="m-8.17-1.9h817.93v408.97h-817.93z"/>
		</clipPath>
		<clipPath clipPathUnits="userSpaceOnUse" id="cp38">
			<path d="m-8.17-1.9h817.93v408.97h-817.93z"/>
		</clipPath>
		<clipPath clipPathUnits="userSpaceOnUse" id="cp39">
			<path d="m-8.17-1.9h817.93v408.97h-817.93z"/>
		</clipPath>
		<clipPath clipPathUnits="userSpaceOnUse" id="cp40">
			<path d="m-8.17-1.9h817.93v408.97h-817.93z"/>
		</clipPath>
		<clipPath clipPathUnits="userSpaceOnUse" id="cp41">
			<path d="m-8.17-1.9h817.93v408.97h-817.93z"/>
		</clipPath>
		<clipPath clipPathUnits="userSpaceOnUse" id="cp42">
			<path d="m-8.17-1.9h817.93v408.97h-817.93z"/>
		</clipPath>
		<clipPath clipPathUnits="userSpaceOnUse" id="cp43">
			<path d="m-9.2-406.69h817.93v408.97h-817.93z"/>
		</clipPath>
		<clipPath clipPathUnits="userSpaceOnUse" id="cp44">
			<path d="m-9.2-406.69h817.93v408.97h-817.93z"/>
		</clipPath>
		<clipPath clipPathUnits="userSpaceOnUse" id="cp45">
			<path d="m-9.2-406.69h817.93v408.97h-817.93z"/>
		</clipPath>
		<clipPath clipPathUnits="userSpaceOnUse" id="cp46">
			<path d="m-9.2-406.69h817.93v408.97h-817.93z"/>
		</clipPath>
		<clipPath clipPathUnits="userSpaceOnUse" id="cp47">
			<path d="m-9.2-406.69h817.93v408.97h-817.93z"/>
		</clipPath>
		<clipPath clipPathUnits="userSpaceOnUse" id="cp48">
			<path d="m-9.2-406.69h817.93v408.97h-817.93z"/>
		</clipPath>
		<clipPath clipPathUnits="userSpaceOnUse" id="cp49">
			<path d="m-9.2-406.69h817.93v408.97h-817.93z"/>
		</clipPath>
		<clipPath clipPathUnits="userSpaceOnUse" id="cp50">
			<path d="m-9.2-406.69h817.93v408.97h-817.93z"/>
		</clipPath>
		<clipPath clipPathUnits="userSpaceOnUse" id="cp51">
			<path d="m-9.2-406.69h817.93v408.97h-817.93z"/>
		</clipPath>
		<clipPath clipPathUnits="userSpaceOnUse" id="cp52">
			<path d="m-9.2-406.69h817.93v408.97h-817.93z"/>
		</clipPath>
		<clipPath clipPathUnits="userSpaceOnUse" id="cp53">
			<path d="m-9.2-406.69h817.93v408.97h-817.93z"/>
		</clipPath>
		<clipPath clipPathUnits="userSpaceOnUse" id="cp54">
			<path d="m-9.2-406.69h817.93v408.97h-817.93z"/>
		</clipPath>
		<clipPath clipPathUnits="userSpaceOnUse" id="cp55">
			<path d="m-9.2-406.69h817.93v408.97h-817.93z"/>
		</clipPath>
		<clipPath clipPathUnits="userSpaceOnUse" id="cp56">
			<path d="m-9.2-406.69h817.93v408.97h-817.93z"/>
		</clipPath>
		<clipPath clipPathUnits="userSpaceOnUse" id="cp57">
			<path d="m-9.2-406.69h817.93v408.97h-817.93z"/>
		</clipPath>
		<clipPath clipPathUnits="userSpaceOnUse" id="cp58">
			<path d="m-9.2-406.69h817.93v408.97h-817.93z"/>
		</clipPath>
		<clipPath clipPathUnits="userSpaceOnUse" id="cp59">
			<path d="m-9.2-406.69h817.93v408.97h-817.93z"/>
		</clipPath>
		<clipPath clipPathUnits="userSpaceOnUse" id="cp60">
			<path d="m-9.2-406.69h817.93v408.97h-817.93z"/>
		</clipPath>
		<clipPath clipPathUnits="userSpaceOnUse" id="cp61">
			<path d="m-9.2-406.69h817.93v408.97h-817.93z"/>
		</clipPath>
		<clipPath clipPathUnits="userSpaceOnUse" id="cp62">
			<path d="m-9.2-406.69h817.93v408.97h-817.93z"/>
		</clipPath>
		<clipPath clipPathUnits="userSpaceOnUse" id="cp63">
			<path d="m-9.2-406.69h817.93v408.97h-817.93z"/>
		</clipPath>
		<clipPath clipPathUnits="userSpaceOnUse" id="cp64">
			<path d="m-9.2-406.69h817.93v408.97h-817.93z"/>
		</clipPath>
		<clipPath clipPathUnits="userSpaceOnUse" id="cp65">
			<path d="m-9.2-406.69h817.93v408.97h-817.93z"/>
		</clipPath>
		<clipPath clipPathUnits="userSpaceOnUse" id="cp66">
			<path d="m-9.2-406.69h817.93v408.97h-817.93z"/>
		</clipPath>
		<clipPath clipPathUnits="userSpaceOnUse" id="cp67">
			<path d="m-9.2-406.69h817.93v408.97h-817.93z"/>
		</clipPath>
		<clipPath clipPathUnits="userSpaceOnUse" id="cp68">
			<path d="m-9.2-406.69h817.93v408.97h-817.93z"/>
		</clipPath>
		<clipPath clipPathUnits="userSpaceOnUse" id="cp69">
			<path d="m-9.2-406.69h817.93v408.97h-817.93z"/>
		</clipPath>
		<clipPath clipPathUnits="userSpaceOnUse" id="cp70">
			<path d="m-9.2-406.69h817.93v408.97h-817.93z"/>
		</clipPath>
		<clipPath clipPathUnits="userSpaceOnUse" id="cp71">
			<path d="m-9.2-406.69h817.93v408.97h-817.93z"/>
		</clipPath>
		<clipPath clipPathUnits="userSpaceOnUse" id="cp72">
			<path d="m-9.2-406.69h817.93v408.97h-817.93z"/>
		</clipPath>
		<clipPath clipPathUnits="userSpaceOnUse" id="cp73">
			<path d="m-9.2-406.69h817.93v408.97h-817.93z"/>
		</clipPath>
		<clipPath clipPathUnits="userSpaceOnUse" id="cp74">
			<path d="m-9.2-406.69h817.93v408.97h-817.93z"/>
		</clipPath>
		<clipPath clipPathUnits="userSpaceOnUse" id="cp75">
			<path d="m-9.2-406.69h817.93v408.97h-817.93z"/>
		</clipPath>
		<clipPath clipPathUnits="userSpaceOnUse" id="cp76">
			<path d="m-9.2-406.69h817.93v408.97h-817.93z"/>
		</clipPath>
		<clipPath clipPathUnits="userSpaceOnUse" id="cp77">
			<path d="m-9.2-406.69h817.93v408.97h-817.93z"/>
		</clipPath>
		<clipPath clipPathUnits="userSpaceOnUse" id="cp78">
			<path d="m-9.2-406.69h817.93v408.97h-817.93z"/>
		</clipPath>
		<clipPath clipPathUnits="userSpaceOnUse" id="cp79">
			<path d="m-9.2-406.69h817.93v408.97h-817.93z"/>
		</clipPath>
		<clipPath clipPathUnits="userSpaceOnUse" id="cp80">
			<path d="m-9.2-406.69h817.93v408.97h-817.93z"/>
		</clipPath>
		<clipPath clipPathUnits="userSpaceOnUse" id="cp81">
			<path d="m-9.2-406.69h817.93v408.97h-817.93z"/>
		</clipPath>
		<clipPath clipPathUnits="userSpaceOnUse" id="cp82">
			<path d="m-9.2-406.69h817.93v408.97h-817.93z"/>
		</clipPath>
		<clipPath clipPathUnits="userSpaceOnUse" id="cp83">
			<path d="m-9.2-406.69h817.93v408.97h-817.93z"/>
		</clipPath>
		<clipPath clipPathUnits="userSpaceOnUse" id="cp84">
			<path d="m-9.2-406.69h817.93v408.97h-817.93z"/>
		</clipPath>
	</defs>
	<style>
		.s0 { fill: #ed378b } 
		.s1 { fill: #e01a54 } 
		.s2 { fill: #224154 } 
		.s3 { fill: #227066 } 
		.s4 { fill: #76a564 } 
	</style>
	<g>
		<path fill-rule="evenodd" class="s0" d="m281.4 361.7l-93.8 42"/>
	</g>
	<g>
	</g>
	<g>
		<g id="Clip-Path" clip-path="url(#cp1)">
			<g>
				<path class="s1" d=""/>
				<path class="s1" d=""/>
				<path class="s2" d=""/>
				<path class="s0" d=""/>
			</g>
		</g>
		<g id="Clip-Path" clip-path="url(#cp2)">
			<g>
				<path fill-rule="evenodd" class="s3" d="m903.1 216.4l-286.6-134.3 245.9-51.4z"/>
				<path fill-rule="evenodd" class="s2" d="m616.5 82.1l206.9 13.1 41.1-100.2z"/>
				<path fill-rule="evenodd" class="s0" d="m823.4 95.2l79.7 121.2-38.6-221.4z"/>
			</g>
		</g>
		<g id="Clip-Path" clip-path="url(#cp3)">
			<g>
				<path fill-rule="evenodd" class="s3" d="m616.5 82.1l-201.5 240.1 243.5-50.8z"/>
				<path fill-rule="evenodd" class="s2" d="m415 322.2l182.4-135.1 61.1 84.3z"/>
				<path fill-rule="evenodd" class="s4" d="m597.4 187.1l19.1-105 42 189.3z"/>
			</g>
		</g>
		<g id="Clip-Path" clip-path="url(#cp4)">
			<path fill-rule="evenodd" class="s4" d="m616.5 82.1l42 189.3 151.3-98.8z"/>
		</g>
		<g id="Clip-Path" clip-path="url(#cp5)">
			<path fill-rule="evenodd" class="s3" d="m743.5 215.9l-12.3-20.7-114.7-113.1 42 189.3z"/>
		</g>
		<g id="Clip-Path" clip-path="url(#cp6)">
			<path fill-rule="evenodd" class="s2" d="m809.8 172.6l-151.3 98.8 42.7-105.8 108.6 7"/>
		</g>
		<g id="Clip-Path" clip-path="url(#cp7)">
			<path class="s2" d=""/>
		</g>
		<g id="Clip-Path" clip-path="url(#cp8)">
			<path fill-rule="evenodd" class="s3" d="m658.5 271.4l151.3 135.7v-234.5z"/>
		</g>
		<g id="Clip-Path" clip-path="url(#cp9)">
			<path fill-rule="evenodd" class="s2" d="m809.8 407.1l-54.5-145.3-96.8 9.6z"/>
		</g>
		<g id="Clip-Path" clip-path="url(#cp10)">
			<path fill-rule="evenodd" class="s4" d="m809.8 172.6l-54.5 89.2-96.8 9.6z"/>
		</g>
		<g id="Clip-Path" clip-path="url(#cp11)">
			<path fill-rule="evenodd" class="s2" d="m658.5 271.4l-81 135.7h232.3z"/>
		</g>
		<g id="Clip-Path" clip-path="url(#cp12)">
			<path fill-rule="evenodd" class="s4" d="m809.8 407.1l-137.5-48.7-13.8-87z"/>
		</g>
		<g id="Clip-Path" clip-path="url(#cp13)">
			<path fill-rule="evenodd" class="s3" d="m658.5 271.4l-81 135.7 94.8-48.7"/>
		</g>
		<g id="Clip-Path" clip-path="url(#cp14)">
			<path fill-rule="evenodd" class="s3" d="m415 322.2l92 48 70.5 36.9 81-135.7z"/>
		</g>
		<g id="Clip-Path" clip-path="url(#cp15)">
			<path fill-rule="evenodd" class="s2" d="m577.5 407.1l-9.8-70.1-152.7-14.8 162.5 84.9z"/>
		</g>
		<g id="Clip-Path" clip-path="url(#cp16)">
			<path fill-rule="evenodd" class="s4" d="m658.5 271.4l-90.8 65.6 9.8 70.1z"/>
		</g>
		<g id="Clip-Path" clip-path="url(#cp17)">
			<path fill-rule="evenodd" class="s3" d="m415 322.2l-61.9 84.9h224.4z"/>
		</g>
		<g id="Clip-Path" clip-path="url(#cp18)">
			<path fill-rule="evenodd" class="s2" d="m577.5 407.1l-145.9-28.1-78.5 28.1z"/>
		</g>
		<g id="Clip-Path" clip-path="url(#cp19)">
			<path fill-rule="evenodd" class="s4" d="m353.1 407.1l78.5-28.1-16.6-56.8z"/>
		</g>
		<g id="Clip-Path" clip-path="url(#cp20)">
			<path class="s0" d=""/>
		</g>
		<g id="Clip-Path" clip-path="url(#cp21)">
			<path fill-rule="evenodd" class="s4" d="m142.3 192.8l56.9 160.7 215.8-31.3z"/>
		</g>
		<g id="Clip-Path" clip-path="url(#cp22)">
			<path fill-rule="evenodd" class="s3" d="m199.2 353.5l60.6-67.9-117.5-92.8z"/>
		</g>
		<g id="Clip-Path" clip-path="url(#cp23)">
			<path fill-rule="evenodd" class="s2" d="m244.4 302.8l170.6 19.4-272.7-129.4z"/>
		</g>
		<g id="Clip-Path" clip-path="url(#cp24)">
			<path fill-rule="evenodd" class="s3" d="m199.2 353.5l153.9 53.6 61.9-84.9z"/>
		</g>
		<g id="Clip-Path" clip-path="url(#cp25)">
			<path fill-rule="evenodd" class="s4" d="m199.2 353.5l149.6 6.5 4.3 47.1z"/>
		</g>
		<g id="Clip-Path" clip-path="url(#cp26)">
			<path fill-rule="evenodd" class="s2" d="m348.8 360l66.2-37.8-215.8 31.3z"/>
		</g>
		<g id="Clip-Path" clip-path="url(#cp27)">
			<path fill-rule="evenodd" class="s4" d="m199.2 353.5l-111.5 53.6h265.4z"/>
		</g>
		<g id="Clip-Path" clip-path="url(#cp28)">
			<path fill-rule="evenodd" class="s2" d="m353.1 407.1l-147.8-18.8-117.6 18.8z"/>
		</g>
		<g id="Clip-Path" clip-path="url(#cp29)">
			<path fill-rule="evenodd" class="s3" d="m205.3 388.3l-6.1-34.8 153.9 53.6z"/>
		</g>
		<g id="Clip-Path" clip-path="url(#cp30)">
			<path class="s1" d=""/>
		</g>
		<g id="Clip-Path" clip-path="url(#cp31)">
			<path class="s0" d=""/>
		</g>
		<g id="Clip-Path" clip-path="url(#cp32)">
			<path class="s2" d=""/>
		</g>
		<g id="Clip-Path" clip-path="url(#cp33)">
			<path class="s2" d=""/>
		</g>
		<g id="Clip-Path" clip-path="url(#cp34)">
			<path fill-rule="evenodd" class="s4" d="m142.3 192.8l-54.6 214.3 111.5-53.6z"/>
		</g>
		<g id="Clip-Path" clip-path="url(#cp35)">
			<path fill-rule="evenodd" class="s2" d="m199.2 353.5l-52-53.6-59.5 107.2z"/>
		</g>
		<g id="Clip-Path" clip-path="url(#cp36)">
			<path fill-rule="evenodd" class="s3" d="m147.2 299.9l-4.9-107.1-54.6 214.3z"/>
		</g>
		<g id="Clip-Path" clip-path="url(#cp37)">
			<path fill-rule="evenodd" class="s1" d="m142.3 192.8l-150.5 85.4"/>
		</g>
		<g id="Clip-Path" clip-path="url(#cp38)">
			<path fill-rule="evenodd" class="s0" d="m-8.2 278.2l150.5-85.4"/>
		</g>
		<g id="Clip-Path" clip-path="url(#cp39)">
			<path class="s2" d=""/>
		</g>
		<g id="Clip-Path" clip-path="url(#cp40)">
			<path fill-rule="evenodd" class="s4" d="m142.3 192.8l-150.5 85.4-1 128.9h96.9z"/>
		</g>
		<g id="Clip-Path" clip-path="url(#cp41)">
			<path fill-rule="evenodd" class="s2" d="m87.7 407.1l-5.5-107.2-90.4-21.7-1 128.9z"/>
		</g>
		<g id="Clip-Path" clip-path="url(#cp42)">
			<path fill-rule="evenodd" class="s3" d="m82.2 299.9l60.1-107.1-150.5 85.4z"/>
		</g>
	</g>
	<g>
		<g id="Clip-Path" clip-path="url(#cp43)">
			<g>
			</g>
		</g>
		<g id="Clip-Path" clip-path="url(#cp44)">
			<g>
			</g>
		</g>
		<g id="Clip-Path" clip-path="url(#cp45)">
			<g>
			</g>
		</g>
		<g id="Clip-Path" clip-path="url(#cp46)">
		</g>
		<g id="Clip-Path" clip-path="url(#cp47)">
		</g>
		<g id="Clip-Path" clip-path="url(#cp48)">
		</g>
		<g id="Clip-Path" clip-path="url(#cp49)">
		</g>
		<g id="Clip-Path" clip-path="url(#cp50)">
		</g>
		<g id="Clip-Path" clip-path="url(#cp51)">
		</g>
		<g id="Clip-Path" clip-path="url(#cp52)">
		</g>
		<g id="Clip-Path" clip-path="url(#cp53)">
		</g>
		<g id="Clip-Path" clip-path="url(#cp54)">
		</g>
		<g id="Clip-Path" clip-path="url(#cp55)">
		</g>
		<g id="Clip-Path" clip-path="url(#cp56)">
		</g>
		<g id="Clip-Path" clip-path="url(#cp57)">
		</g>
		<g id="Clip-Path" clip-path="url(#cp58)">
		</g>
		<g id="Clip-Path" clip-path="url(#cp59)">
		</g>
		<g id="Clip-Path" clip-path="url(#cp60)">
		</g>
		<g id="Clip-Path" clip-path="url(#cp61)">
		</g>
		<g id="Clip-Path" clip-path="url(#cp62)">
		</g>
		<g id="Clip-Path" clip-path="url(#cp63)">
		</g>
		<g id="Clip-Path" clip-path="url(#cp64)">
		</g>
		<g id="Clip-Path" clip-path="url(#cp65)">
		</g>
		<g id="Clip-Path" clip-path="url(#cp66)">
		</g>
		<g id="Clip-Path" clip-path="url(#cp67)">
		</g>
		<g id="Clip-Path" clip-path="url(#cp68)">
		</g>
		<g id="Clip-Path" clip-path="url(#cp69)">
		</g>
		<g id="Clip-Path" clip-path="url(#cp70)">
		</g>
		<g id="Clip-Path" clip-path="url(#cp71)">
		</g>
		<g id="Clip-Path" clip-path="url(#cp72)">
		</g>
		<g id="Clip-Path" clip-path="url(#cp73)">
		</g>
		<g id="Clip-Path" clip-path="url(#cp74)">
		</g>
		<g id="Clip-Path" clip-path="url(#cp75)">
		</g>
		<g id="Clip-Path" clip-path="url(#cp76)">
		</g>
		<g id="Clip-Path" clip-path="url(#cp77)">
		</g>
		<g id="Clip-Path" clip-path="url(#cp78)">
		</g>
		<g id="Clip-Path" clip-path="url(#cp79)">
		</g>
		<g id="Clip-Path" clip-path="url(#cp80)">
		</g>
		<g id="Clip-Path" clip-path="url(#cp81)">
		</g>
		<g id="Clip-Path" clip-path="url(#cp82)">
		</g>
		<g id="Clip-Path" clip-path="url(#cp83)">
		</g>
		<g id="Clip-Path" clip-path="url(#cp84)">
		</g>
	</g>
	<g>
	</g>
	<g>
		<g>
		</g>
		<g>
		</g>
		<g>
		</g>
	</g>
</svg>