<svg xmlns="http://www.w3.org/2000/svg" viewBox="0 0 50 50" width="100px" height="100px"><path d="M 25 6 C 17.28 6 11 12.28 11 20 C 11 24.675 12.928813 27.268641 14.632812 29.556641 C 15.239812 30.373641 15.875875 31.152562 16.546875 31.976562 C 18.817875 34.765563 21.390703 37.927281 23.470703 43.488281 C 23.746703 44.228281 24.291953 44.636719 25.001953 44.636719 C 25.711953 44.636719 26.25525 44.228281 26.53125 43.488281 C 28.61025 37.927281 31.184078 34.765563 33.455078 31.976562 C 34.126078 31.152562 34.762141 30.373641 35.369141 29.556641 C 37.071141 27.268641 39 24.675 39 20 C 39 12.28 32.72 6 25 6 z M 25 7 C 26.028204 7 27.047039 7.1422532 28.041016 7.3867188 L 20.921875 16.052734 L 15.255859 11.396484 C 17.733235 8.6300533 21.32926 7 25 7 z M 29.087891 7.6894531 C 32.594079 8.8675267 35.609846 11.515592 37.064453 15.142578 L 30.6875 22.904297 C 30.887821 22.30564 31 21.666112 31 21 C 31 17.686 28.314 15 25 15 C 24.18765 15 23.413599 15.162603 22.707031 15.455078 L 29.087891 7.6894531 z M 14.623047 12.173828 L 20.287109 16.826172 L 13.207031 25.441406 C 12.503905 23.965575 12 22.220625 12 20 C 12 16.948452 13.007933 14.287502 14.623047 12.173828 z M 25 16 C 27.761 16 30 18.239 30 21 C 30 23.761 27.761 26 25 26 C 22.239 26 20 23.761 20 21 C 20 18.239 22.239 16 25 16 z M 37.451172 16.246094 C 37.799056 17.417241 38 18.669321 38 20 C 38 24.675 35.815281 27.259828 34.113281 29.548828 C 33.506281 30.365828 32.832156 31.160375 32.160156 31.984375 C 29.888156 34.773375 27.937844 37.323094 25.839844 42.496094 C 25.542844 43.228094 25.482047 43.636719 24.998047 43.636719 C 24.514047 43.636719 24.45425 43.222234 24.15625 42.490234 C 23.125182 39.953931 22.077306 37.983068 20.992188 36.279297 L 37.451172 16.246094 z M 19.115234 19.826172 C 19.039862 20.206015 19 20.598002 19 21 C 19 24.314 21.686 27 25 27 C 26.083819 27 27.097116 26.707663 27.974609 26.205078 L 20.417969 35.404297 C 19.584329 34.17802 18.728638 33.076342 17.837891 31.982422 C 17.166891 31.158422 16.507391 30.391219 15.900391 29.574219 C 15.19008 28.619348 14.400156 27.59628 13.712891 26.402344 L 19.115234 19.826172 z" fill="#a38874"/></svg>